<svg xmlns="http://www.w3.org/2000/svg">
  <symbol id="icon-adhd-rpg" viewBox="0 0 24 24">
    <g fill="none" stroke="currentColor" stroke-width="1.8" stroke-linecap="round" stroke-linejoin="round">
      <circle cx="12" cy="12" r="8.5"/>
      <path d="m14.8 9.2-1.6 4-4 1.6 1.6-4 4-1.6Z"/>
      <path d="m18 4.5.5 1.2 1.2.5-1.2.5L18 8l-.5-1.3-1.2-.5 1.2-.5L18 4.5Z"/>
    </g>
  </symbol>
  <symbol id="icon-multiverse-breach" viewBox="0 0 24 24">
    <g fill="none" stroke="currentColor" stroke-width="1.8" stroke-linecap="round">
      <ellipse cx="8" cy="12" rx="4.5" ry="8"/>
      <ellipse cx="16" cy="12" rx="4.5" ry="8"/>
      <path d="M10 6.5h4M10 17.5h4"/>
    </g>
  </symbol>
  <symbol id="icon-cainos" viewBox="0 0 24 24">
    <g fill="none" stroke="currentColor" stroke-width="1.8" stroke-linecap="round" stroke-linejoin="round">
      <rect x="3" y="4" width="18" height="14" rx="2"/>
      <path d="m6 11 2-2 2 4 2-6 2 5 2-2h2M8 21h8M12 18v3"/>
    </g>
  </symbol>
  <symbol id="icon-la-petite-fiole" viewBox="0 0 24 24">
    <g fill="none" stroke="currentColor" stroke-width="1.8" stroke-linecap="round" stroke-linejoin="round">
      <path d="M9 3h6M10 3v5l-4.7 8.1A3.2 3.2 0 0 0 8.1 21h7.8a3.2 3.2 0 0 0 2.8-4.9L14 8V3"/>
      <path d="M7.5 15h9M9.5 12.2h5"/>
    </g>
  </symbol>
  <symbol id="icon-manga-finder" viewBox="0 0 24 24">
    <g fill="none" stroke="currentColor" stroke-width="1.8" stroke-linecap="round" stroke-linejoin="round">
      <path d="M4 5.5A3.5 3.5 0 0 1 7.5 4H12v14H7.5A3.5 3.5 0 0 0 4 19.5v-14ZM12 4h4.5A3.5 3.5 0 0 1 20 5.5v6"/>
      <circle cx="17" cy="16" r="3"/>
      <path d="m19.2 18.2 2 2"/>
    </g>
  </symbol>
  <symbol id="icon-media-gatherer" viewBox="0 0 24 24">
    <g fill="none" stroke="currentColor" stroke-width="1.8" stroke-linecap="round" stroke-linejoin="round">
      <rect x="3" y="5" width="7" height="6" rx="1"/>
      <rect x="14" y="13" width="7" height="6" rx="1"/>
      <circle cx="17.5" cy="6.5" r="2.5"/>
      <path d="m10 8 5-1M8 11l7 3M17 9v4"/>
    </g>
  </symbol>
  <symbol id="icon-budgetia" viewBox="0 0 24 24">
    <g fill="none" stroke="currentColor" stroke-width="1.8" stroke-linecap="round" stroke-linejoin="round">
      <path d="M4 7h14a2 2 0 0 1 2 2v9H6a2 2 0 0 1-2-2V7Zm0 0 11-3v3"/>
      <path d="M14 11h6v4h-6a2 2 0 1 1 0-4ZM8 15l2-2 2 1 3-4"/>
    </g>
  </symbol>
  <symbol id="icon-can-i-eat-it" viewBox="0 0 24 24">
    <g fill="none" stroke="currentColor" stroke-width="1.8" stroke-linecap="round" stroke-linejoin="round">
      <path d="M4 8V4h4M16 4h4v4M20 16v4h-4M8 20H4v-4"/>
      <path d="M9 7v5a2 2 0 0 0 2 2V7M9 10h2M15 7v10M15 7c2 1 2.5 3.5 0 5"/>
    </g>
  </symbol>
  <symbol id="icon-xenomorph-tamagotchi" viewBox="0 0 24 24">
    <g fill="none" stroke="currentColor" stroke-width="1.8" stroke-linecap="round" stroke-linejoin="round">
      <path d="M12 3c4 3 6 7.2 6 11a6 6 0 0 1-12 0c0-3.8 2-8 6-11Z"/>
      <path d="M8 13c2-2 6-2 8 0M9 16c1.5-1 4.5-1 6 0M12 8v2"/>
    </g>
  </symbol>
  <symbol id="icon-shadow-codec-ops" viewBox="0 0 24 24">
    <g fill="none" stroke="currentColor" stroke-width="1.8" stroke-linecap="round" stroke-linejoin="round">
      <path d="M4 15V9M7 18V6M10 14v-4M14 17V7M17 14v-4M20 16V8"/>
      <path d="M3 20h18M5 4h14"/>
    </g>
  </symbol>
  <symbol id="icon-jigsaw-mastermind" viewBox="0 0 24 24">
    <g fill="none" stroke="currentColor" stroke-width="1.8" stroke-linecap="round" stroke-linejoin="round">
      <path d="M4 4h6a2.5 2.5 0 1 0 4 0h6v6a2.5 2.5 0 1 0 0 4v6h-6a2.5 2.5 0 1 0-4 0H4v-6a2.5 2.5 0 1 0 0-4V4Z"/>
    </g>
  </symbol>
  <symbol id="icon-apertire-enrichment-os" viewBox="0 0 24 24">
    <g fill="none" stroke="currentColor" stroke-width="1.8">
      <ellipse cx="7.5" cy="12" rx="4" ry="8"/>
      <ellipse cx="16.5" cy="12" rx="4" ry="8"/>
      <path d="M11.5 8h1M11.5 16h1"/>
    </g>
  </symbol>
  <symbol id="icon-umbrella-hive-manager" viewBox="0 0 24 24">
    <g fill="none" stroke="currentColor" stroke-width="1.8" stroke-linecap="round" stroke-linejoin="round">
      <path d="m12 3 7 4v8l-7 6-7-6V7l7-4Z"/>
      <circle cx="12" cy="12" r="2.5"/>
      <path d="M12 5v4.5M18 8.5l-3.8 2.2M18 15.5l-3.8-2.2M6 15.5l3.8-2.2M6 8.5l3.8 2.2"/>
    </g>
  </symbol>
  <symbol id="icon-hellbound-hotel-manager" viewBox="0 0 24 24">
    <g fill="none" stroke="currentColor" stroke-width="1.8" stroke-linecap="round" stroke-linejoin="round">
      <path d="M5 17h14M7 17v-2a5 5 0 0 1 10 0v2M12 8V5M9 5h6M4 20h16"/>
      <path d="M12 3c1.5 1 2 2 1.2 3.3"/>
    </g>
  </symbol>
  <symbol id="icon-combine-administrator-simulator" viewBox="0 0 24 24">
    <g fill="none" stroke="currentColor" stroke-width="1.8" stroke-linecap="round" stroke-linejoin="round">
      <path d="m12 3 8 4v5c0 4.8-3.2 7.6-8 9-4.8-1.4-8-4.2-8-9V7l8-4Z"/>
      <path d="M8 16V9h3v7M13 16V7h3v9M7 16h10"/>
    </g>
  </symbol>
  <symbol id="icon-sg2d-expedition" viewBox="0 0 24 24">
    <g fill="none" stroke="currentColor" stroke-width="1.8" stroke-linecap="round" stroke-linejoin="round">
      <circle cx="12" cy="11" r="8"/>
      <circle cx="12" cy="11" r="5"/>
      <path d="M12 16v5M8 21h8M4.8 16.3l-2 2M19.2 16.3l2 2"/>
    </g>
  </symbol>
  <symbol id="icon-spinframe" viewBox="0 0 24 24">
    <g fill="none" stroke="currentColor" stroke-width="1.8" stroke-linecap="round" stroke-linejoin="round">
      <circle cx="11" cy="12" r="7"/>
      <circle cx="11" cy="12" r="3"/>
      <path d="m16.5 7.5 4-4M17.5 4.5l2 2M15 9l-4 4"/>
    </g>
  </symbol>
  <symbol id="icon-vortex-command" viewBox="0 0 24 24">
    <g fill="none" stroke="currentColor" stroke-width="1.8" stroke-linecap="round" stroke-linejoin="round">
      <circle cx="12" cy="12" r="9"/>
      <path d="M12 3c4 4 4 14 0 18M3 12h18M6 6c5 0 9 3 9 7 0 3-2 5-5 5"/>
    </g>
  </symbol>
  <symbol id="icon-ragtime-rumble" viewBox="0 0 24 24">
    <g fill="none" stroke="currentColor" stroke-width="1.8" stroke-linecap="round" stroke-linejoin="round">
      <path d="M9 17V6l9-2v11M9 9l9-2"/>
      <circle cx="6.5" cy="17.5" r="2.5"/>
      <circle cx="15.5" cy="15.5" r="2.5"/>
      <path d="m4 5 1-2 1 2 2 1-2 1-1 2-1-2-2-1 2-1Z"/>
    </g>
  </symbol>
  <symbol id="icon-fossil-frontier" viewBox="0 0 24 24">
    <g fill="none" stroke="currentColor" stroke-width="1.8" stroke-linecap="round" stroke-linejoin="round">
      <path d="M18.5 18.5a8 8 0 1 1 0-11.3c3 3 2 8-1 10.2-2 1.5-5.5 1.2-7-.8-1.2-1.7-.5-4 1.2-5 1.3-.8 3.2-.5 3.8.8.5 1 .1 2.4-.9 2.9-.8.4-1.8.1-2.2-.7"/>
      <path d="M7 19 4 22M5.5 17.5l-3 1"/>
    </g>
  </symbol>
  <symbol id="icon-kaiju-rupture" viewBox="0 0 24 24">
    <g fill="none" stroke="currentColor" stroke-width="1.8" stroke-linecap="round" stroke-linejoin="round">
      <path d="M4 20V9l4 2V7l4 3V5l4 4v11M2 20h20"/>
      <path d="m17 4 1.5 3L22 8l-3 1.5-1 3-1.5-3L14 8l2.5-1L17 4Z"/>
    </g>
  </symbol>
  <symbol id="icon-jurassic-arsenal" viewBox="0 0 24 24">
    <g fill="none" stroke="currentColor" stroke-width="1.8" stroke-linecap="round" stroke-linejoin="round">
      <path d="M4 16c2-7 7-11 14-10l2 3-3 2 2 3-5 3-5-1-2 3H4v-3Z"/>
      <path d="M13 9h.01M8 14l5 1M3 7h4M5 5v4"/>
    </g>
  </symbol>
  <symbol id="icon-genomescan-bioarena" viewBox="0 0 24 24">
    <g fill="none" stroke="currentColor" stroke-width="1.8" stroke-linecap="round" stroke-linejoin="round">
      <path d="M7 4c6 3 6 13 0 16M17 4c-6 3-6 13 0 16M8.5 7h7M7.5 12h9M8.5 17h7"/>
      <path d="M3 6V3h3M18 3h3v3M21 18v3h-3M6 21H3v-3"/>
    </g>
  </symbol>
  <symbol id="icon-triarche-ciel-rouge" viewBox="0 0 24 24">
    <g fill="none" stroke="currentColor" stroke-width="1.8" stroke-linejoin="round">
      <path d="m12 3 4 7-4 2-4-2 4-7ZM6 12l4 3-1 5-6-4 3-4ZM18 12l-4 3 1 5 6-4-3-4Z"/>
    </g>
  </symbol>
  <symbol id="icon-hive-ascension" viewBox="0 0 24 24">
    <g fill="none" stroke="currentColor" stroke-width="1.8" stroke-linecap="round" stroke-linejoin="round">
      <path d="M12 4c3 2 5 5.5 5 9a5 5 0 0 1-10 0c0-3.5 2-7 5-9Z"/>
      <path d="M7 10 3 7v7l4 3M17 10l4-3v7l-4 3M9 20h6"/>
    </g>
  </symbol>
  <symbol id="icon-snail-dette-immortelle" viewBox="0 0 24 24">
    <g fill="none" stroke="currentColor" stroke-width="1.8" stroke-linecap="round" stroke-linejoin="round">
      <path d="M9 17a6 6 0 1 1 6-6 4 4 0 0 1-4 4 2.5 2.5 0 0 1-2.5-2.5A1.5 1.5 0 0 1 10 11"/>
      <path d="M3 17h15a3 3 0 0 0 3-3v-1M17 8l1-3M20 9l2-2"/>
    </g>
  </symbol>
  <symbol id="icon-chroma-forge" viewBox="0 0 24 24">
    <g fill="none" stroke="currentColor" stroke-width="1.8" stroke-linecap="round" stroke-linejoin="round">
      <path d="M12 3a9 9 0 1 0 0 18h1.5a2 2 0 0 0 0-4H12a2 2 0 0 1 0-4h3a6 6 0 0 0-3-10Z"/>
      <circle cx="7.5" cy="10" r=".7" fill="currentColor"/>
      <circle cx="10" cy="6.8" r=".7" fill="currentColor"/>
      <circle cx="15" cy="7.5" r=".7" fill="currentColor"/>
    </g>
  </symbol>
  <symbol id="icon-yautja-la-longue-chasse" viewBox="0 0 24 24">
    <g fill="none" stroke="currentColor" stroke-width="1.8" stroke-linecap="round" stroke-linejoin="round">
      <circle cx="12" cy="12" r="8"/>
      <path d="M12 4v4M12 16v4M4 12h4M16 12h4"/>
      <path d="m12 9 3 5H9l3-5Z"/>
    </g>
  </symbol>
  <symbol id="icon-yomi-no-kage" viewBox="0 0 24 24">
    <g fill="none" stroke="currentColor" stroke-width="1.8" stroke-linecap="round" stroke-linejoin="round">
      <path d="M4 8h16M6 8l1-4h10l1 4M7 8v12M17 8v12M5 20h14"/>
      <path d="m10 16 7-7M15 8l2 2M9 17l-2 2"/>
    </g>
  </symbol>
  <symbol id="icon-iron-tempest" viewBox="0 0 24 24">
    <g fill="none" stroke="currentColor" stroke-width="1.8" stroke-linecap="round" stroke-linejoin="round">
      <path d="M4 14h13l3 3H6l-2-3ZM7 14V9h8l2 5M11 9V6h5M3 19h17"/>
      <path d="m9 3-2 4h3l-2 4"/>
    </g>
  </symbol>
  <symbol id="icon-xion-operator-node" viewBox="0 0 24 24">
    <g fill="none" stroke="currentColor" stroke-width="1.8" stroke-linecap="round" stroke-linejoin="round">
      <path d="m12 3 7 4v8l-7 4-7-4V7l7-4Z"/>
      <circle cx="12" cy="11" r="2.5"/>
      <path d="M12 5v3.5M6.5 8.5 10 10M17.5 8.5 14 10M8 16l2.5-3M16 16l-2.5-3"/>
    </g>
  </symbol>
  <symbol id="icon-another-day-z" viewBox="0 0 24 24">
    <g fill="none" stroke="currentColor" stroke-width="1.8" stroke-linecap="round" stroke-linejoin="round">
      <path d="M5 17V7h11l3 4v6H5ZM8 7V4h5v3M5 12h14M8 17v2M16 17v2"/>
      <circle cx="8" cy="17" r="1.5"/>
      <circle cx="16" cy="17" r="1.5"/>
    </g>
  </symbol>
</svg>
